# xmcd CD database file
#
# Track frame offsets:
#	150
#	26569
#	48007
#	70824
#	96956
#
# Disc length: 1575 seconds
#
# Revision: 0
# Processed by: cddbd v1.5.1PL0 Copyright (c) Steve Scherf et al.
# Submitted via: CDex 1.51
#
DISCID=37062505
DTITLE=CHEMISTRY - Long Long Way
DYEAR=2004
DGENRE=JPop
TTITLE0=Long Long Way
TTITLE1=涙のあと
TTITLE2=Long Long Way (韻シストMIX)
TTITLE3=Long Long Way [Instrumental]
TTITLE4=涙のあと [Instrumental]
EXTD=YEAR: 2004
EXTT0=
EXTT1=
EXTT2=
EXTT3=
EXTT4=
PLAYORDER=
